<!DOCTYPE svg PUBLIC "-//W3C//DTD SVG 1.1//EN" "http://www.w3.org/Graphics/SVG/1.1/DTD/svg11.dtd">
<svg xmlns="http://www.w3.org/2000/svg" viewBox="3 0 44 44">
    <title>SublimeText 2/3 Logo</title>
    <path d="M40.28 42H7.72c-1.024 0-2.014-.44-2.714-1.205-.726-.793-1.086-1.868-.99-2.95L6.106 14.3c.168-1.882 1.686-3.3 3.53-3.3h28.728c1.846 0 3.364 1.42 3.53 3.3l2.09 23.545c.097 1.082-.264 2.157-.99 2.95-.7.766-1.69 1.205-2.715 1.205z" fill="#CFD8DC"/>
    <path d="M36.63 38H11.37C9.51 38 8 36.378 8 34.385V30h32v4.385C40 36.378 38.49 38 36.63 38z" fill="#263238"/>
    <path d="M36.666 34H11.334c-.915 0-1.77-.392-2.403-1.103-.66-.744-.997-1.76-.92-2.786L9.595 9.3c.14-1.85 1.6-3.3 3.322-3.3h22.167c1.722 0 3.18 1.45 3.323 3.3l1.583 20.81c.077 1.028-.26 2.042-.92 2.786-.635.712-1.488 1.104-2.404 1.104z" fill="#546E7A"/>
    <path d="M8.856 19L8.01 30.11c-.077 1.028.26 2.042.92 2.786.635.712 1.49 1.104 2.404 1.104h25.332c.915 0 1.77-.392 2.403-1.103.66-.744.997-1.76.92-2.787L39.143 19H8.856z" fill="#455A64"/>
    <path d="M29.19 20c-1.938-2.264-6.71-1.88-6.71-3.39 0-.733.53-1.273 1.645-1.273 1.116 0 1.963.742 3.114.742.645 0 1.47-.27 1.47-1.192 0-1.483-3.018-1.888-4.604-1.888C21.99 13 19 13.832 19 17c0 1.647 1.14 2.463 2.634 3 2.01.723 4.366 1.02 4.366 2.438 0 .93-1.017 1.55-2.192 1.55-1.655 0-2.963-.99-3.88-.99C19.204 23 18 23.25 18 24.584 18 26.688 22.828 27 24.596 27 25.653 27 30 26.37 30 22.307c0-.994-.318-1.732-.81-2.307z" fill="#FFC107"/>
    <path d="M27.892 19h-8.037c.464.43 1.08.748 1.78 1h-.002c2.01.723 4.367 1.02 4.367 2.438 0 .93-1.017 1.55-2.192 1.55-1.655 0-2.963-.99-3.88-.99C19.204 23 18 23.25 18 24.584 18 26.688 22.828 27 24.596 27 25.653 27 30 26.37 30 22.307c0-.994-.318-1.732-.81-2.307-.354-.413-.803-.736-1.298-1z" fill="#FFB300"/>
</svg>